<svg xmlns="http://www.w3.org/2000/svg" width="43" height="43" viewBox="0 0 43 43">
  <path id="Icon_awesome-whatsapp-square" data-name="Icon awesome-whatsapp-square" d="M21.5,10.965A12.649,12.649,0,0,0,10.779,30.344l.3.48L9.8,35.489l4.79-1.257.461.278a12.617,12.617,0,0,0,6.44,1.766h.01a12.792,12.792,0,0,0,12.794-12.65,12.709,12.709,0,0,0-3.849-8.946A12.553,12.553,0,0,0,21.5,10.965Zm7.439,18.083a3.879,3.879,0,0,1-2.563,1.8c-1.209.182-2.15.086-4.559-.95-3.81-1.651-6.306-5.49-6.5-5.74a7.369,7.369,0,0,1-1.555-3.935A4.259,4.259,0,0,1,15.1,17.05a1.385,1.385,0,0,1,1.017-.48c.25,0,.509,0,.729.01s.547-.086.854.653c.317.758,1.075,2.63,1.171,2.822a.672.672,0,0,1,.029.662c-.729,1.459-1.507,1.4-1.113,2.073a10.362,10.362,0,0,0,5.173,4.521c.384.192.6.163.825-.1s.95-1.113,1.2-1.488.509-.317.854-.192,2.217,1.046,2.6,1.238.633.288.729.442a3.377,3.377,0,0,1-.23,1.833Zm9.454-26.8H4.607A4.608,4.608,0,0,0,0,6.857V40.643A4.608,4.608,0,0,0,4.607,45.25H38.393A4.608,4.608,0,0,0,43,40.643V6.857A4.608,4.608,0,0,0,38.393,2.25ZM21.49,38.838a15.207,15.207,0,0,1-7.275-1.852L6.143,39.107l2.16-7.89a15.249,15.249,0,1,1,28.555-7.592A15.362,15.362,0,0,1,21.49,38.838Z" transform="translate(0 -2.25)" fill="#29b200"/>
</svg>
