<svg id="Group_6144" data-name="Group 6144" xmlns="http://www.w3.org/2000/svg" xmlns:xlink="http://www.w3.org/1999/xlink" width="35.515" height="46.986" viewBox="0 0 35.515 46.986">
  <defs>
    <style>
      .cls-1 {
        fill: url(#linear-gradient);
      }

      .cls-2 {
        fill: url(#linear-gradient-2);
      }

      .cls-3 {
        fill: url(#linear-gradient-3);
      }
    </style>
    <linearGradient id="linear-gradient" x1="0.5" y1="-1.853" x2="0.5" y2="1.138" gradientUnits="objectBoundingBox">
      <stop offset="0" stop-color="#2a338a"/>
      <stop offset="1" stop-color="#00a1a0"/>
    </linearGradient>
    <linearGradient id="linear-gradient-2" x1="0.5" y1="-5.86" x2="0.5" y2="-1.963" xlink:href="#linear-gradient"/>
    <linearGradient id="linear-gradient-3" x1="0.5" y1="-0.176" x2="0.5" y2="0.578" xlink:href="#linear-gradient"/>
  </defs>
  <circle id="Ellipse_75" data-name="Ellipse 75" class="cls-1" cx="5.143" cy="5.143" r="5.143" transform="translate(12.525 11.885)"/>
  <path id="Path_451" data-name="Path 451" class="cls-2" d="M323.558,344.931l2.894,7.057,2.9-6.995-2.9-.9Z" transform="translate(-308.691 -305.002)"/>
  <path id="Path_452" data-name="Path 452" class="cls-3" d="M318.268,266.877h3.5A18.115,18.115,0,0,0,304.357,246.4c-.065,0-.13,0-.2,0s-.131,0-.2,0a18.115,18.115,0,0,0-17.414,20.472h3.5l-2.859,2.859,5.945,17.493,11.021-3.582,11.021,3.582,5.945-17.493Zm-4.577.787-3.1,10.046-6.422-1.864v0h-.009v0l-6.422,1.864-3.1-10.046a10.312,10.312,0,0,1,9.093-13.389c.145-.008.291-.01.437-.013s.293,0,.437.013A10.311,10.311,0,0,1,313.691,267.663Z" transform="translate(-286.404 -246.404)"/>
</svg>
