<svg xmlns="http://www.w3.org/2000/svg" width="18.278" height="22.878" viewBox="0 0 18.278 22.878">
  <g id="Icon_ionic-ios-notifications-outline" data-name="Icon ionic-ios-notifications-outline" transform="translate(0 0)">
    <path id="Path_1285" data-name="Path 1285" d="M19.311,28.336a.741.741,0,0,0-.726.583,1.433,1.433,0,0,1-.286.623,1.081,1.081,0,0,1-.921.337,1.1,1.1,0,0,1-.921-.337,1.433,1.433,0,0,1-.286-.623.741.741,0,0,0-.726-.583h0a.746.746,0,0,0-.726.909,2.555,2.555,0,0,0,2.659,2.121,2.55,2.55,0,0,0,2.659-2.121.748.748,0,0,0-.726-.909Z" transform="translate(-8.255 -8.488)"/>
    <path id="Path_1286" data-name="Path 1286" d="M24.824,20.873c-.881-1.161-2.613-1.841-2.613-7.039,0-5.335-2.356-7.479-4.552-7.994-.206-.051-.355-.12-.355-.337V5.337A1.4,1.4,0,0,0,15.932,3.93H15.9a1.4,1.4,0,0,0-1.372,1.407V5.5c0,.212-.149.286-.355.337-2.2.52-4.552,2.659-4.552,7.994,0,5.2-1.733,5.872-2.613,7.039a1.135,1.135,0,0,0,.909,1.818H23.932A1.136,1.136,0,0,0,24.824,20.873Zm-2.23.332H9.259a.251.251,0,0,1-.189-.417,6.927,6.927,0,0,0,1.2-1.91,12.958,12.958,0,0,0,.818-5.043,8.769,8.769,0,0,1,1.2-4.963A3.669,3.669,0,0,1,14.5,7.293a2,2,0,0,0,1.064-.6.452.452,0,0,1,.68-.011,2.072,2.072,0,0,0,1.075.612,3.669,3.669,0,0,1,2.213,1.578,8.769,8.769,0,0,1,1.2,4.963,12.958,12.958,0,0,0,.818,5.043,7.006,7.006,0,0,0,1.229,1.938A.236.236,0,0,1,22.594,21.2Z" transform="translate(-6.775 -3.93)"/>
  </g>
</svg>
