<?xml version="1.0" encoding="utf-8"?>
<!-- Generator: Adobe Illustrator 27.9.0, SVG Export Plug-In . SVG Version: 6.00 Build 0)  -->
<svg version="1.1" id="Layer_1" xmlns="http://www.w3.org/2000/svg" xmlns:xlink="http://www.w3.org/1999/xlink" x="0px" y="0px"
	 viewBox="0 0 595.28 841.89" style="enable-background:new 0 0 595.28 841.89;" xml:space="preserve">
<style type="text/css">
	.st0{fill:url(#SVGID_1_);}
	.st1{fill:url(#SVGID_00000102520729980474391630000016717816209771670928_);}
	.st2{fill:url(#SVGID_00000084487834532167067690000014632495190433391527_);}
</style>
<g>
	<linearGradient id="SVGID_1_" gradientUnits="userSpaceOnUse" x1="297.3347" y1="344.2911" x2="297.3347" y2="421.1922">
		<stop  offset="0" style="stop-color:#2C3689"/>
		<stop  offset="1" style="stop-color:#04A1A0"/>
	</linearGradient>
	<circle class="st0" cx="297.33" cy="404.78" r="12.85"/>
	
		<linearGradient id="SVGID_00000170994956784118827340000016928973579953085877_" gradientUnits="userSpaceOnUse" x1="297.5701" y1="344.2911" x2="297.5701" y2="421.1922">
		<stop  offset="0" style="stop-color:#2C3689"/>
		<stop  offset="1" style="stop-color:#04A1A0"/>
	</linearGradient>
	<polygon style="fill:url(#SVGID_00000170994956784118827340000016928973579953085877_);" points="290.33,462.01 297.57,479.65 
		304.81,462.17 297.55,459.92 	"/>
	
		<linearGradient id="SVGID_00000081620120606626982680000013429112025670549143_" gradientUnits="userSpaceOnUse" x1="297.5567" y1="344.2911" x2="297.5567" y2="421.1922">
		<stop  offset="0" style="stop-color:#2C3689"/>
		<stop  offset="1" style="stop-color:#04A1A0"/>
	</linearGradient>
	<path style="fill:url(#SVGID_00000081620120606626982680000013429112025670549143_);" d="M332.81,413.39h8.75
		c3.34-26.15-16.43-50.61-43.52-51.16c-0.16,0-0.33,0-0.49,0c-0.16,0-0.33-0.01-0.49,0c-27.09,0.55-46.86,25.01-43.52,51.16h8.75
		l-7.14,7.14l14.86,43.72l27.54-8.95l27.54,8.95l14.86-43.72L332.81,413.39z M321.37,415.36l-7.76,25.11l-16.05-4.66v-0.01l-0.01,0
		l-0.01,0v0.01l-16.05,4.66l-7.76-25.11c-4.9-15.86,6.15-32.5,22.72-33.46c0.36-0.02,0.73-0.03,1.09-0.03
		c0.37,0.01,0.73,0.01,1.09,0.03C315.22,382.86,326.27,399.5,321.37,415.36z"/>
</g>
</svg>
