<svg xmlns="http://www.w3.org/2000/svg" width="17.995" height="24.422" viewBox="0 0 17.995 24.422">
  <path id="Icon_metro-keyboard-voice" data-name="Icon metro-keyboard-voice" d="M17.995,21.851a3.848,3.848,0,0,0,3.843-3.856l.013-7.712a3.856,3.856,0,0,0-7.712,0v7.712a3.859,3.859,0,0,0,3.856,3.856Zm6.812-3.856a6.665,6.665,0,0,1-6.812,6.555,6.669,6.669,0,0,1-6.812-6.555H9a8.966,8.966,0,0,0,7.712,8.638v4.216H19.28V26.633a8.966,8.966,0,0,0,7.712-8.638H24.807Z" transform="translate(-8.997 -6.427)" fill="#7b7b7b"/>
</svg>
